# xmcd CD database file
#
# Track frame offsets:
#	150
#	16595
#	39095
#	51785
#	72962
#	92507
#	118995
#	152340
#	179812
#	204847
#	221182
#	244795
#	253605
#	275115
#	295865
#	329017
#
# Disc length: 4661 seconds
#
# Revision: 0
# Processed by: cddbd v1.4PL0 Copyright (c) Steve Scherf et al.
# Submitted via: CDex 1.50Beta7
#
DISCID=ea123310
DTITLE=Satou Masami - Moderato na Sanpo
DYEAR=1998
DGENRE=New Age
TTITLE0=Emerald Leaves
TTITLE1=5gatsu no Kaze
TTITLE2=Mizuiro no Kodomo-Tachi
TTITLE3=Frozen Forest
TTITLE4=Puerta Del Sol
TTITLE5=Shade
TTITLE6=Blizzard
TTITLE7=Kouyouju
TTITLE8=Yousei no Odori
TTITLE9=Samba Eterno
TTITLE10=Nogusa
TTITLE11=Flower Fairy
TTITLE12=Mother Tree
TTITLE13=Modulation
TTITLE14=Komugi-Batake
TTITLE15=Breathing
EXTD=YEAR: 1998
EXTT0=
EXTT1=
EXTT2=
EXTT3=
EXTT4=
EXTT5=
EXTT6=
EXTT7=
EXTT8=
EXTT9=
EXTT10=
EXTT11=
EXTT12=
EXTT13=
EXTT14=
EXTT15=
PLAYORDER=
